<svg width="16" height="16" viewBox="0 0 16 16" fill="none" xmlns="http://www.w3.org/2000/svg">
<g clip-path="url(#clip0_36_1254)">
<path d="M1.44394 3.125C1.44394 2.50391 1.94162 2 2.55505 2H9.22172C9.83514 2 10.3328 2.50391 10.3328 3.125V6.85156V7.0071V7.3267V7.47585C10.3328 7.47585 10.3328 7.99148 10.3328 8V8.75V9.63636V10.7273V12.9091C10.3328 14 9.8889 14 9.8889 14C9.8889 14 10.3328 14 9.22172 14H6.9995V12.125C6.9995 11.5039 6.50181 11 5.88838 11C5.27496 11 4.77727 11.5039 4.77727 12.125V14H2.55505C1.94162 14 1.44394 13.4961 1.44394 12.875V3.125ZM3.29579 7.25C3.09209 7.25 2.92542 7.41875 2.92542 7.625V8.375C2.92542 8.58125 3.09209 8.75 3.29579 8.75H4.03653C4.24024 8.75 4.4069 8.58125 4.4069 8.375V7.625C4.4069 7.41875 4.24024 7.25 4.03653 7.25H3.29579ZM5.14764 7.625V8.375C5.14764 8.58125 5.31431 8.75 5.51801 8.75H6.25875C6.46246 8.75 6.62912 8.58125 6.62912 8.375V7.625C6.62912 7.41875 6.46246 7.25 6.25875 7.25H5.51801C5.31431 7.25 5.14764 7.41875 5.14764 7.625ZM2.92542 4.625V5.375C2.92542 5.58125 3.09209 5.75 3.29579 5.75H4.03653C4.24024 5.75 4.4069 5.58125 4.4069 5.375V4.625C4.4069 4.41875 4.24024 4.25 4.03653 4.25H3.29579C3.09209 4.25 2.92542 4.41875 2.92542 4.625ZM5.51801 4.25C5.31431 4.25 5.14764 4.41875 5.14764 4.625V5.375C5.14764 5.58125 5.31431 5.75 5.51801 5.75H6.25875C6.46246 5.75 6.62912 5.58125 6.62912 5.375V4.625C6.62912 4.41875 6.46246 4.25 6.25875 4.25H5.51801ZM7.36987 4.625V5.375C7.36987 5.58125 7.53653 5.75 7.74024 5.75H8.48098C8.68468 5.75 8.85135 5.58125 8.85135 5.375V4.625C8.85135 4.41875 8.68468 4.25 8.48098 4.25H7.74024C7.53653 4.25 7.36987 4.41875 7.36987 4.625Z" fill="#82328C"/>
<path d="M7.36987 8.375V7.625C7.36987 7.41875 7.53653 7.25 7.74024 7.25H8.48098C8.68468 7.25 8.85135 7.41875 8.85135 7.625V8.375C8.85135 8.58125 8.68468 8.75 8.48098 8.75H7.74024C7.53653 8.75 7.36987 8.58125 7.36987 8.375Z" fill="#82328C"/>
<path d="M9.75422 14C9.75038 13.8767 9.78417 13.7398 9.88863 13.6003C9.88879 13.6714 9.8889 13.7927 9.8889 14L9.75422 14ZM9.83283 12.9091C9.83283 13.2548 9.78221 13.4258 9.74957 13.5L9.22172 13.5H7.4995V12.125C7.4995 11.2336 6.78379 10.5 5.88838 10.5C4.99298 10.5 4.27727 11.2336 4.27727 12.125V13.5H2.55505C2.2236 13.5 1.94394 13.2258 1.94394 12.875V3.125C1.94394 2.77417 2.2236 2.5 2.55505 2.5H9.22172C9.55316 2.5 9.83283 2.77417 9.83283 3.125V6.85156V7.0071V7.3267V7.47585V7.47588V7.47591V7.47595V7.476V7.47606V7.47614V7.47623V7.47633V7.47643V7.47656V7.47669V7.47683V7.47699V7.47715V7.47733V7.47752V7.47772V7.47793V7.47815V7.47838V7.47863V7.47888V7.47915V7.47942V7.47971V7.48V7.48031V7.48063V7.48096V7.4813V7.48165V7.482V7.48237V7.48275V7.48314V7.48354V7.48396V7.48438V7.48481V7.48525V7.4857V7.48616V7.48663V7.48711V7.4876V7.4881V7.48861V7.48912V7.48965V7.49019V7.49074V7.49129V7.49186V7.49243V7.49302V7.49361V7.49422V7.49483V7.49545V7.49608V7.49672V7.49737V7.49802V7.49869V7.49937V7.50005V7.50074V7.50144V7.50215V7.50287V7.5036V7.50433V7.50508V7.50583V7.50659V7.50736V7.50814V7.50892V7.50972V7.51052V7.51133V7.51215V7.51297V7.51381V7.51465V7.5155V7.51636V7.51722V7.51809V7.51898V7.51986V7.52076V7.52166V7.52257V7.52349V7.52442V7.52535V7.52629V7.52724V7.5282V7.52916V7.53013V7.5311V7.53209V7.53308V7.53408V7.53508V7.53609V7.53711V7.53814V7.53917V7.54021V7.54125V7.5423V7.54336V7.54443V7.5455V7.54657V7.54766V7.54875V7.54984V7.55095V7.55206V7.55317V7.55429V7.55542V7.55655V7.55769V7.55884V7.55999V7.56114V7.56231V7.56347V7.56465V7.56583V7.56701V7.5682V7.5694V7.5706V7.57181V7.57302V7.57424V7.57546V7.57669V7.57792V7.57916V7.5804V7.58165V7.5829V7.58416V7.58543V7.58669V7.58797V7.58924V7.59053V7.59181V7.59311V7.5944V7.5957V7.59701V7.59832V7.59963V7.60095V7.60227V7.6036V7.60493V7.60627V7.60761V7.60895V7.6103V7.61165V7.61301V7.61437V7.61573V7.6171V7.61847V7.61984V7.62122V7.6226V7.62399V7.62538V7.62677V7.62816V7.62956V7.63097V7.63237V7.63378V7.63519V7.63661V7.63803V7.63945V7.64087V7.6423V7.64373V7.64517V7.6466V7.64804V7.64948V7.65093V7.65237V7.65382V7.65528V7.65673V7.65819V7.65965V7.66111V7.66258V7.66404V7.66551V7.66698V7.66846V7.66993V7.67141V7.67289V7.67437V7.67586V7.67734V7.67883V7.68032V7.68181V7.6833V7.68479V7.68629V7.68779V7.68929V7.69079V7.69229V7.69379V7.6953V7.6968V7.69831V7.69982V7.70133V7.70284V7.70435V7.70586V7.70737V7.70889V7.7104V7.71192V7.71344V7.71495V7.71647V7.71799V7.71951V7.72103V7.72255V7.72407V7.72559V7.72712V7.72864V7.73016V7.73168V7.73321V7.73473V7.73625V7.73778V7.7393V7.74082V7.74235V7.74387V7.74539V7.74691V7.74844V7.74996V7.75148V7.753V7.75452V7.75604V7.75756V7.75908V7.7606V7.76212V7.76363V7.76515V7.76667V7.76818V7.76969V7.77121V7.77272V7.77423V7.77574V7.77725V7.77876V7.78026V7.78177V7.78327V7.78477V7.78627V7.78777V7.78927V7.79077V7.79226V7.79375V7.79524V7.79673V7.79822V7.79971V7.80119V7.80267V7.80415V7.80563V7.80711V7.80858V7.81005V7.81152V7.81299V7.81446V7.81592V7.81738V7.81884V7.82029V7.82175V7.8232V7.82465V7.82609V7.82753V7.82897V7.83041V7.83185V7.83328V7.83471V7.83613V7.83755V7.83897V7.84039V7.8418V7.84321V7.84462V7.84602V7.84742V7.84882V7.85021V7.8516V7.85299V7.85437V7.85575V7.85713V7.8585V7.85987V7.86123V7.86259V7.86395V7.8653V7.86665V7.86799V7.86934V7.87067V7.872V7.87333V7.87466V7.87598V7.87729V7.8786V7.87991V7.88121V7.88251V7.8838V7.88509V7.88637V7.88765V7.88893V7.8902V7.89146V7.89272V7.89397V7.89522V7.89647V7.89771V7.89894V7.90017V7.9014V7.90262V7.90383V7.90504V7.90624V7.90744V7.90863V7.90982V7.911V7.91217V7.91334V7.91451V7.91566V7.91682V7.91796V7.9191V7.92024V7.92137V7.92249V7.92361V7.92472V7.92582V7.92692V7.92801V7.9291V7.93018V7.93125V7.93232V7.93338V7.93443V7.93548V7.93652V7.93755V7.93858V7.9396V7.94061V7.94162V7.94262V7.94361V7.94459V7.94557V7.94654V7.94751V7.94846V7.94941V7.95036V7.95129V7.95222V7.95314V7.95405V7.95496V7.95586V7.95675V7.95763V7.95851V7.95937V7.96023V7.96109V7.96193V7.96277V7.96359V7.96441V7.96523V7.96603V7.96683V7.96761V7.96839V7.96916V7.96993V7.97068V7.97143V7.97217V7.9729V7.97362V7.97433V7.97503V7.97573V7.97641V7.97709V7.97776V7.97842V7.97907V7.97971V7.98034V7.98097V7.98158V7.98219V7.98278V7.98337V7.98395V7.98452V7.98507V7.98562V7.98617V7.9867V7.98722V7.98773V7.98823V7.98872V7.9892V7.98968V7.99014V7.99059V7.99104V7.99147V7.99189V7.99231V7.99271V7.9931V7.99348V7.99386V7.99422V7.99457V7.99491V7.99524V7.99556V7.99587V7.99617V7.99646V7.99674V7.99701V7.99727V7.99751V7.99775V7.99797V7.99818V7.99839V7.99858V7.99876V7.99893V7.99909V7.99923V7.99937V7.99949V7.99961V7.99971V7.9998V7.99988V7.99994V8V8.75V9.63636V10.7273V12.9091ZM3.29579 6.75C2.81011 6.75 2.42542 7.14848 2.42542 7.625V8.375C2.42542 8.85152 2.81011 9.25 3.29579 9.25H4.03653C4.35194 9.25 4.62475 9.08195 4.77727 8.83361C4.9298 9.08195 5.20261 9.25 5.51801 9.25H6.25875C6.57416 9.25 6.84697 9.08195 6.9995 8.83361C7.15202 9.08195 7.42483 9.25 7.74024 9.25H8.48098C8.96666 9.25 9.35135 8.85152 9.35135 8.375V7.625C9.35135 7.14848 8.96666 6.75 8.48098 6.75H7.74024C7.42483 6.75 7.15202 6.91805 6.9995 7.16639C6.84697 6.91805 6.57416 6.75 6.25875 6.75H5.51801C5.20261 6.75 4.9298 6.91805 4.77727 7.16639C4.62475 6.91805 4.35194 6.75 4.03653 6.75H3.29579ZM2.42542 4.625V5.375C2.42542 5.85152 2.81011 6.25 3.29579 6.25H4.03653C4.35194 6.25 4.62475 6.08195 4.77727 5.83361C4.9298 6.08195 5.20261 6.25 5.51801 6.25H6.25875C6.57416 6.25 6.84697 6.08195 6.9995 5.83361C7.15202 6.08195 7.42483 6.25 7.74024 6.25H8.48098C8.96666 6.25 9.35135 5.85152 9.35135 5.375V4.625C9.35135 4.14848 8.96666 3.75 8.48098 3.75H7.74024C7.42483 3.75 7.15202 3.91805 6.9995 4.16639C6.84697 3.91805 6.57416 3.75 6.25875 3.75H5.51801C5.20261 3.75 4.9298 3.91805 4.77727 4.16639C4.62475 3.91805 4.35194 3.75 4.03653 3.75H3.29579C2.81011 3.75 2.42542 4.14848 2.42542 4.625ZM8.35135 8.25H7.86987V7.75H8.35135V8.25Z" stroke="#82328C"/>
</g>
<path d="M9.66582 8.06855C9.57441 7.97715 9.42617 7.97715 9.33418 8.06855L8.06855 9.33418C7.97715 9.42559 7.97715 9.57383 8.06855 9.66582L9.33418 10.9314C9.42559 11.0229 9.57383 11.0229 9.66582 10.9314L10.9314 9.66582C11.0229 9.57441 11.0229 9.42617 10.9314 9.33418L9.66582 8.06855Z" fill="#FFD90F"/>
<path d="M11.6658 10.0686C11.5744 9.97715 11.4262 9.97715 11.3342 10.0686L10.0686 11.3342C9.97715 11.4256 9.97715 11.5738 10.0686 11.6658L11.3342 12.9314C11.4256 13.0229 11.5738 13.0229 11.6658 12.9314L12.9314 11.6658C13.0229 11.5744 13.0229 11.4262 12.9314 11.3342L11.6658 10.0686Z" fill="#FFD90F"/>
<path d="M13.6658 8.06855C13.5744 7.97715 13.4262 7.97715 13.3342 8.06855L12.0686 9.33418C11.9771 9.42559 11.9771 9.57383 12.0686 9.66582L13.3342 10.9314C13.4256 11.0229 13.5738 11.0229 13.6658 10.9314L14.9314 9.66582C15.0229 9.57441 15.0229 9.42617 14.9314 9.33418L13.6658 8.06855Z" fill="#FFD90F"/>
<path d="M11.6658 6.06855C11.5744 5.97715 11.4262 5.97715 11.3342 6.06855L10.0686 7.33418C9.97715 7.42559 9.97715 7.57383 10.0686 7.66582L11.3342 8.93145C11.4256 9.02285 11.5738 9.02285 11.6658 8.93145L12.9314 7.66582C13.0229 7.57441 13.0229 7.42617 12.9314 7.33418L11.6658 6.06855Z" fill="#FFD90F"/>
<defs>
<clipPath id="clip0_36_1254">
<rect width="10" height="12" fill="white" transform="translate(1 2)"/>
</clipPath>
</defs>
</svg>
